<svg preserveAspectRatio="none" width="100%" height="100%" overflow="visible" style="display: block;" viewBox="0 0 22.6667 15.5621" fill="none" xmlns="http://www.w3.org/2000/svg">
<path id="Vector" fill-rule="evenodd" clip-rule="evenodd" d="M12.5053 1.17114C13.2554 0.42126 14.2727 0 15.3333 0C16.394 0 17.4112 0.42126 18.1613 1.17114L17.2188 2.11399L18.1615 1.17129L22.2761 5.28595C22.7968 5.80665 22.7968 6.65087 22.2761 7.17157C21.7554 7.69227 20.9112 7.69227 20.3905 7.17157L16.276 3.05705C16.026 2.80709 15.6869 2.66667 15.3333 2.66667C14.9798 2.66667 14.6408 2.80703 14.3908 3.05691C14.3908 3.05695 14.3907 3.057 14.3907 3.05705L2.27614 15.1716C1.75544 15.6923 0.911223 15.6923 0.390524 15.1716C-0.130175 14.6509 -0.130175 13.8067 0.390524 13.286L12.5052 1.17129L13.4479 2.11399L12.5053 1.17114Z" fill="var(--fill-0, #585858)"/>
</svg>
