<svg preserveAspectRatio="none" width="100%" height="100%" overflow="visible" style="display: block;" viewBox="0 0 26.6667 26.6667" fill="none" xmlns="http://www.w3.org/2000/svg">
<path id="Vector" fill-rule="evenodd" clip-rule="evenodd" d="M4 2.66667C3.64638 2.66667 3.30724 2.80714 3.05719 3.05719C2.80714 3.30724 2.66667 3.64638 2.66667 4V22.6667C2.66667 23.0203 2.80714 23.3594 3.05719 23.6095C3.30724 23.8595 3.64638 24 4 24H22.6667C23.0203 24 23.3594 23.8595 23.6095 23.6095C23.8595 23.3594 24 23.0203 24 22.6667V12.6667C24 11.9303 24.597 11.3333 25.3333 11.3333C26.0697 11.3333 26.6667 11.9303 26.6667 12.6667V22.6667C26.6667 23.7275 26.2452 24.7449 25.4951 25.4951C24.7449 26.2452 23.7275 26.6667 22.6667 26.6667H4C2.93913 26.6667 1.92172 26.2452 1.17157 25.4951C0.421427 24.7449 0 23.7275 0 22.6667V4C0 2.93913 0.421427 1.92172 1.17157 1.17157C1.92172 0.421427 2.93913 0 4 0H14C14.7364 0 15.3333 0.596954 15.3333 1.33333C15.3333 2.06971 14.7364 2.66667 14 2.66667H4Z" fill="var(--fill-0, #585858)"/>
</svg>
