<svg preserveAspectRatio="none" width="100%" height="100%" overflow="visible" style="display: block;" viewBox="0 0 23.3333 12.8333" fill="none" xmlns="http://www.w3.org/2000/svg">
<path id="Vector" fill-rule="evenodd" clip-rule="evenodd" d="M11.6645 2.33333C9.18992 2.33391 6.81683 3.31718 5.067 5.067C3.31666 6.81734 2.33333 9.19131 2.33333 11.6667C2.33333 12.311 1.811 12.8333 1.16667 12.8333C0.522334 12.8333 0 12.311 0 11.6667C0 8.57247 1.22916 5.60501 3.41709 3.41709C5.60501 1.22916 8.57247 0 11.6667 0C11.6681 0 11.6696 2.7593e-06 11.6711 8.27789e-06C14.9075 0.0121835 18.014 1.27504 20.3409 3.52454C20.3456 3.52911 20.3503 3.53372 20.355 3.53838L22.9916 6.17504C23.4472 6.63065 23.4472 7.36935 22.9916 7.82496C22.536 8.28057 21.7973 8.28057 21.3417 7.82496L18.7122 5.19545C16.8195 3.36916 14.2948 2.3438 11.6645 2.33333Z" fill="var(--fill-0, #F29337)"/>
</svg>
