<svg preserveAspectRatio="none" width="100%" height="100%" overflow="visible" style="display: block;" viewBox="0 0 23.3333 12.8333" fill="none" xmlns="http://www.w3.org/2000/svg">
<path id="Vector" fill-rule="evenodd" clip-rule="evenodd" d="M22.1667 0C22.811 0 23.3333 0.522334 23.3333 1.16667C23.3333 4.26086 22.1042 7.22832 19.9162 9.41624C17.7283 11.6042 14.7609 12.8333 11.6667 12.8333C11.6652 12.8333 11.6637 12.8333 11.6623 12.8333C8.42582 12.8211 5.31937 11.5583 2.99245 9.3088C2.98772 9.30422 2.98303 9.29961 2.97838 9.29496L0.341709 6.65829C-0.113903 6.20268 -0.113903 5.46399 0.341709 5.00838C0.79732 4.55276 1.53601 4.55276 1.99162 5.00838L4.6211 7.63785C6.51381 9.46415 9.03847 10.4895 11.6688 10.5C14.1434 10.4994 16.5165 9.51617 18.2663 7.76633C20.0167 6.01599 21 3.64202 21 1.16667C21 0.522334 21.5223 0 22.1667 0Z" fill="var(--fill-0, #F29337)"/>
</svg>
