<svg preserveAspectRatio="none" width="100%" height="100%" overflow="visible" style="display: block;" viewBox="0 0 14.6667 27.5" fill="none" xmlns="http://www.w3.org/2000/svg">
<path id="Vector" fill-rule="evenodd" clip-rule="evenodd" d="M2.14788 2.14788C3.52315 0.772617 5.38841 0 7.33333 0C9.27825 0 11.1435 0.772617 12.5188 2.14788C13.8941 3.52315 14.6667 5.38841 14.6667 7.33333V20.1667C14.6667 22.1116 13.8941 23.9768 12.5188 25.3521C11.1435 26.7274 9.27825 27.5 7.33333 27.5C5.38841 27.5 3.52315 26.7274 2.14788 25.3521C0.772616 23.9768 0 22.1116 0 20.1667V7.33333C0 5.38841 0.772616 3.52315 2.14788 2.14788ZM7.33333 3.66667C6.36087 3.66667 5.42824 4.05298 4.74061 4.74061C4.05298 5.42824 3.66667 6.36087 3.66667 7.33333V20.1667C3.66667 21.1391 4.05298 22.0718 4.74061 22.7594C5.42824 23.447 6.36087 23.8333 7.33333 23.8333C8.30579 23.8333 9.23843 23.447 9.92606 22.7594C10.6137 22.0718 11 21.1391 11 20.1667V7.33333C11 6.36087 10.6137 5.42824 9.92606 4.74061C9.23843 4.05298 8.30579 3.66667 7.33333 3.66667Z" fill="var(--fill-0, white)"/>
</svg>
