<svg preserveAspectRatio="none" width="100%" height="100%" overflow="visible" style="display: block;" viewBox="0 0 29.3333 20.1667" fill="none" xmlns="http://www.w3.org/2000/svg">
<path id="Vector" fill-rule="evenodd" clip-rule="evenodd" d="M1.83333 0C2.84586 0 3.66667 0.820811 3.66667 1.83333V5.5C3.66667 8.41738 4.82559 11.2153 6.88849 13.2782C8.95139 15.3411 11.7493 16.5 14.6667 16.5C17.584 16.5 20.3819 15.3411 22.4448 13.2782C24.5077 11.2153 25.6667 8.41738 25.6667 5.5V1.83333C25.6667 0.820811 26.4875 0 27.5 0C28.5125 0 29.3333 0.820811 29.3333 1.83333V5.5C29.3333 9.38984 27.7881 13.1204 25.0376 15.8709C22.287 18.6214 18.5565 20.1667 14.6667 20.1667C10.7768 20.1667 7.0463 18.6214 4.29577 15.8709C1.54523 13.1204 0 9.38984 0 5.5V1.83333C0 0.820811 0.820811 0 1.83333 0Z" fill="var(--fill-0, white)"/>
</svg>
