<svg preserveAspectRatio="none" width="100%" height="100%" overflow="visible" style="display: block;" viewBox="0 0 40.3343 40.3343" fill="none" xmlns="http://www.w3.org/2000/svg">
<path id="Vector" fill-rule="evenodd" clip-rule="evenodd" d="M18.5028 0.559041C18.981 0.196331 19.5646 0 20.1648 0C20.7649 0 21.3486 0.196331 21.8268 0.559041C22.3049 0.921747 22.6513 1.43092 22.813 2.00887C22.8164 2.02103 22.8197 2.03322 22.8229 2.04545L25.7212 13.2925C25.7213 13.2926 25.7213 13.2928 25.7214 13.293C25.8032 13.61 25.9686 13.8993 26.2001 14.1309C26.4317 14.3624 26.721 14.5277 27.038 14.6096C27.0382 14.6097 27.0383 14.6097 27.0385 14.6097L38.2855 17.5081C38.2956 17.5107 38.3056 17.5134 38.3155 17.5161C38.8958 17.6762 39.4075 18.0222 39.7721 18.501C40.1368 18.9799 40.3343 19.5652 40.3343 20.1671C40.3343 20.769 40.1368 21.3543 39.7721 21.8332C39.4075 22.3121 38.8958 22.6581 38.3155 22.8181C38.3056 22.8209 38.2956 22.8235 38.2855 22.8261L27.0385 25.7245C27.0383 25.7245 27.0382 25.7246 27.038 25.7246C26.721 25.8065 26.4317 25.9718 26.2001 26.2034C25.9684 26.435 25.8031 26.7245 25.7212 27.0418L22.821 38.2891C22.8187 38.2977 22.8164 38.3064 22.8141 38.315C22.8131 38.3185 22.8122 38.3219 22.8112 38.3254C22.6495 38.9033 22.3031 39.4125 21.8249 39.7752C21.3468 40.1379 20.7631 40.3343 20.163 40.3343C19.5628 40.3343 18.9791 40.1379 18.501 39.7752C18.0228 39.4125 17.6764 38.9033 17.5147 38.3254C17.5113 38.3132 17.508 38.301 17.5049 38.2888L14.6065 27.0418C14.6065 27.0416 14.6064 27.0414 14.6064 27.0413C14.5245 26.7242 14.3592 26.4349 14.1276 26.2034C13.896 25.9717 13.6065 25.8063 13.2892 25.7245L2.04193 22.8242C2.02761 22.8205 2.01334 22.8167 1.99911 22.8126C1.42344 22.6492 0.916766 22.3025 0.555981 21.8251C0.195199 21.3476 0 20.7655 0 20.1671C0 19.5687 0.195199 18.9866 0.555981 18.5092C0.916766 18.0317 1.42344 17.685 1.99911 17.5216C2.01325 17.5176 2.02743 17.5138 2.04166 17.5101L13.2892 14.6079L13.747 16.3824L13.2895 14.6078C13.6066 14.5261 13.896 14.3609 14.1277 14.1294C14.3593 13.8979 14.5248 13.6086 14.6067 13.2915L17.5068 2.04518C17.5099 2.03304 17.5132 2.02094 17.5165 2.00887C17.6783 1.43093 18.0246 0.921752 18.5028 0.559041ZM14.2049 18.1584L6.4211 20.1668L14.205 22.174L14.2052 22.1741C15.1569 22.4196 16.0254 22.9156 16.7204 23.6106C17.4153 24.3056 17.9114 25.1741 18.1569 26.1258L20.1632 33.9113L22.1708 26.126L22.1708 26.1258C22.4163 25.1741 22.9124 24.3056 23.6074 23.6106C24.3024 22.9156 25.1709 22.4196 26.1226 22.1741L33.9105 20.1671L26.1226 18.1602C25.1709 17.9147 24.3024 17.4186 23.6074 16.7236C22.9124 16.0286 22.4163 15.1601 22.1708 14.2084L22.1707 14.208L20.1645 6.42299L18.1567 14.2094C17.9107 15.1606 17.4145 16.0285 16.7195 16.723C16.0246 17.4175 15.1563 17.9131 14.2049 18.1584Z" fill="var(--fill-0, white)"/>
</svg>
